<svg xmlns="http://www.w3.org/2000/svg" viewBox="0 0 256 256">
  <defs>
    <linearGradient id="grad" x1="0%" y1="0%" x2="100%" y2="100%">
      <stop offset="0%" style="stop-color:#9b59e6;stop-opacity:1" />
      <stop offset="100%" style="stop-color:#7125e4;stop-opacity:1" />
    </linearGradient>
  </defs>
  <rect width="256" height="256" fill="#ffffff" opacity="0"/>
  <path d="M 60 60 L 60 196 L 100 196 C 120 196 135 181 135 161 C 135 148 128 137 118 132 C 125 127 130 118 130 108 C 130 88 115 73 95 73 L 60 73 L 60 60 Z M 85 85 L 95 85 C 105 85 112 92 112 102 C 112 112 105 119 95 119 L 85 119 Z M 85 137 L 100 137 C 110 137 117 144 117 154 C 117 164 110 171 100 171 L 85 171 Z" fill="url(#grad)"/>
  <path d="M 155 60 L 155 196 L 220 196 L 220 171 L 180 171 L 180 60 Z" fill="url(#grad)"/>
</svg>